<?xml version="1.0" standalone="no"?>
<!DOCTYPE svg PUBLIC "-//W3C//DTD SVG 20010904//EN"
 "http://www.w3.org/TR/2001/REC-SVG-20010904/DTD/svg10.dtd">
<svg version="1.0" xmlns="http://www.w3.org/2000/svg"
 width="1579.000000pt" height="1579.000000pt" viewBox="0 0 1579.000000 1579.000000"
 preserveAspectRatio="xMidYMid meet">
<metadata>
Created by potrace 1.11, written by Peter Selinger 2001-2013
</metadata>
<g transform="translate(0.000000,1579.000000) scale(0.100000,-0.100000)"
fill="#000000" stroke="none">
<path d="M0 7895 l0 -7895 7895 0 7895 0 0 7895 0 7895 -7895 0 -7895 0 0
-7895z m8123 1968 c-7 -2 -21 -2 -30 0 -10 3 -4 5 12 5 17 0 24 -2 18 -5z
m-800 -10 c-7 -2 -21 -2 -30 0 -10 3 -4 5 12 5 17 0 24 -2 18 -5z m3904 1 c-3
-3 -12 -4 -19 -1 -8 3 -5 6 6 6 11 1 17 -2 13 -5z m116 -1 c-13 -2 -33 -2 -45
0 -13 2 -3 4 22 4 25 0 35 -2 23 -4z m-3737 -13 c6 -6 62 -14 125 -19 80 -6
96 -9 53 -10 -34 0 -88 -3 -120 -5 -47 -3 -51 -2 -19 4 l40 7 -42 1 c-24 1
-43 6 -43 11 0 5 -12 12 -27 14 -28 4 -28 4 -2 6 14 0 30 -4 35 -9z m437 3
c-7 -2 -21 -2 -30 0 -10 3 -4 5 12 5 17 0 24 -2 18 -5z m127 -8 c-7 -8 -22
-14 -34 -14 -20 2 -20 2 2 6 12 2 22 9 22 14 0 5 5 9 11 9 8 0 8 -5 -1 -15z
m56 1 c22 -23 17 -42 -6 -21 -19 17 -26 35 -14 35 3 0 12 -6 20 -14z m3971 2
c-16 -6 -33 -6 -37 -2 -5 5 7 10 28 11 37 2 37 2 9 -9z m-4228 -14 c10 -9 -45
-3 -59 6 -11 7 -5 8 20 4 19 -4 37 -8 39 -10z m3402 4 c-10 -3 -44 -9 -77 -11
-32 -3 -48 -3 -34 0 20 4 22 7 8 12 -10 3 14 6 52 6 38 0 61 -3 51 -7z m-3891
-12 c8 -2 -25 -4 -75 -4 -49 0 -99 3 -109 7 -18 7 151 4 184 -3z m83 7 c-7 -2
-21 -2 -30 0 -10 3 -4 5 12 5 17 0 24 -2 18 -5z m527 -3 c12 -8 9 -10 -13 -10
-16 0 -26 4 -22 10 8 12 16 12 35 0z m3961 -8 c-18 -2 -37 0 -42 5 -5 5 11 6
34 3 41 -4 41 -5 8 -8z m-4028 1 c-7 -2 -21 -2 -30 0 -10 3 -4 5 12 5 17 0 24
-2 18 -5z m3417 -9 c-73 -11 -76 -12 -25 -9 47 2 55 1 35 -7 -15 -5 -53 -6
-95 -2 l-70 8 75 12 c41 6 95 11 120 11 33 0 23 -3 -40 -13z m513 9 c-7 -2
-19 -2 -25 0 -7 3 -2 5 12 5 14 0 19 -2 13 -5z m247 -2 l-45 -6 44 -8 c24 -4
41 -10 38 -13 -9 -9 -117 18 -111 28 3 4 31 7 62 6 l57 -1 -45 -6z m-4841 -17
c2 -2 -12 -4 -32 -4 -20 0 -39 5 -42 11 -5 7 5 8 32 3 21 -4 40 -8 42 -10z
m200 0 c10 -9 -35 -3 -49 6 -11 8 -7 9 15 4 17 -4 32 -8 34 -10z m394 9 c-7
-2 -19 -2 -25 0 -7 3 -2 5 12 5 14 0 19 -2 13 -5z m255 -5 c18 -18 15 -33 -4
-18 -8 8 -32 17 -52 21 l-37 7 41 1 c22 0 45 -4 52 -11z m3070 -3 c2 -2 -17
-4 -41 -6 -33 -3 -43 -1 -40 9 4 9 16 10 42 6 20 -4 37 -8 39 -9z m-3810 -2
c-10 -2 -28 -2 -40 0 -13 2 -5 4 17 4 22 1 32 -1 23 -4z m612 -2 c0 -4 -11 -6
-25 -3 -14 2 -25 6 -25 8 0 2 11 4 25 4 14 0 25 -4 25 -9z m3963 2 c-18 -2
-48 -2 -65 0 -18 2 -4 4 32 4 36 0 50 -2 33 -4z m-5088 -13 c-11 -5 -14 -9 -7
-9 6 -1 12 -8 12 -17 0 -13 7 -15 33 -10 23 4 28 3 17 -4 -22 -14 -50 -12 -56
5 -3 8 -16 17 -27 21 -22 7 -22 7 -2 15 28 11 56 10 30 -1z m1335 0 c0 -5 -8
-10 -17 -10 -15 0 -16 2 -3 10 19 12 20 12 20 0z m60 0 c0 -5 -2 -10 -4 -10
-3 0 -8 5 -11 10 -3 6 -1 10 4 10 6 0 11 -4 11 -10z m95 0 c13 -5 14 -9 5 -9
-8 0 -24 4 -35 9 -13 5 -14 9 -5 9 8 0 24 -4 35 -9z m2405 0 c10 -7 4 -8 -20
-4 -26 4 -31 3 -20 -5 8 -6 11 -11 5 -11 -5 1 -18 7 -27 14 -16 11 -14 13 15
14 18 1 39 -3 47 -8z m113 3 c-7 -2 -19 -2 -25 0 -7 3 -2 5 12 5 14 0 19 -2
13 -5z m132 -3 c13 -6 15 -9 5 -9 -8 0 -22 4 -30 9 -18 12 -2 12 25 0z m1212
4 c-3 -3 -12 -4 -19 -1 -8 3 -5 6 6 6 11 1 17 -2 13 -5z m243 -4 c-11 -7 -5
-10 25 -11 32 -2 34 -3 11 -6 -15 -3 -40 -1 -55 2 -24 7 -25 8 -6 15 28 12 43
12 25 0z m53 3 c-7 -2 -19 -2 -25 0 -7 3 -2 5 12 5 14 0 19 -2 13 -5z m94 1
c-3 -3 -12 -4 -19 -1 -8 3 -5 6 6 6 11 1 17 -2 13 -5z m-5854 -16 c3 -10 7
-10 20 0 13 11 19 10 34 -5 10 -10 33 -25 51 -34 l33 -16 -43 -6 c-24 -3 -47
-2 -52 4 -6 5 -21 9 -35 9 -15 0 -33 4 -40 9 -10 6 1 8 30 4 24 -3 49 -10 55
-15 6 -4 20 -5 30 -1 17 6 16 8 -6 13 -14 4 -24 12 -22 18 1 7 -7 12 -19 12
-11 0 -17 -4 -14 -10 3 -5 -1 -10 -9 -10 -9 0 -16 4 -16 8 0 5 -10 14 -22 20
l-23 11 22 0 c12 1 23 -5 26 -11z m354 6 c-3 -3 -12 -4 -19 -1 -8 3 -5 6 6 6
11 1 17 -2 13 -5z m967 -5 c-2 -4 31 -9 73 -13 42 -4 86 -12 97 -18 11 -6 55
-11 96 -12 41 0 62 -2 45 -4 -23 -3 -10 -9 60 -27 106 -27 191 -60 298 -116
43 -23 81 -38 84 -35 3 3 -9 12 -28 20 -19 9 -27 15 -18 16 19 0 54 -25 54
-38 0 -6 20 -25 44 -42 31 -23 46 -29 54 -21 16 16 27 13 26 -6 0 -11 -3 -13
-6 -5 -2 6 -9 9 -14 6 -10 -6 59 -84 73 -84 4 0 5 9 3 20 -2 12 0 18 6 15 5
-4 7 -10 4 -15 -3 -5 -1 -11 4 -15 6 -3 7 -13 4 -23 -6 -15 -5 -16 12 -2 10 8
16 10 12 3 -4 -6 13 -42 38 -80 25 -37 45 -62 45 -55 0 7 5 10 10 7 6 -4 8
-16 5 -28 -5 -18 -4 -19 5 -7 10 12 11 11 7 -8 -3 -12 -2 -20 3 -17 4 3 11 -2
14 -11 3 -8 2 -12 -4 -9 -6 4 -5 -5 2 -19 6 -14 15 -26 20 -26 5 0 6 -4 3 -10
-3 -5 -1 -18 4 -27 6 -10 11 -14 11 -9 0 5 8 2 18 -5 9 -7 14 -9 10 -5 -4 5
-3 15 3 23 9 9 8 13 0 13 -6 0 -11 -4 -11 -10 0 -5 -7 -7 -15 -4 -8 4 -15 10
-15 16 0 5 5 6 10 3 6 -4 18 2 28 12 9 11 14 14 10 8 -4 -7 -5 -15 -1 -18 8
-9 11 -57 2 -51 -12 7 -18 -79 -7 -105 6 -14 13 -39 15 -56 2 -16 8 -42 13
-57 5 -15 6 -44 3 -64 -4 -27 -3 -35 6 -30 8 6 10 -11 5 -65 -6 -64 -5 -74 12
-87 12 -9 14 -13 4 -9 -13 4 -16 -6 -15 -62 0 -36 -3 -95 -9 -131 -5 -36 -10
-78 -12 -95 -1 -16 -3 -32 -4 -35 -1 -3 -3 -9 -4 -15 -1 -5 -5 -17 -8 -25 -18
-44 -27 -83 -21 -93 3 -5 11 3 18 19 10 26 11 20 10 -49 -1 -43 -5 -80 -9 -84
-3 -3 -6 1 -6 9 0 9 -7 22 -16 29 -15 12 -16 10 -10 -21 5 -29 4 -31 -4 -12
-5 13 -7 35 -4 49 l7 26 14 -27 c7 -14 15 -26 16 -26 1 0 3 18 3 41 1 26 -2
36 -7 28 -6 -10 -9 -11 -9 -1 0 6 -4 12 -8 12 -10 0 -37 -79 -33 -99 1 -7 -2
-11 -6 -8 -5 3 -22 -17 -37 -45 -16 -28 -24 -48 -17 -44 6 4 11 3 11 -1 0 -5
-10 -13 -22 -18 -17 -8 -23 -18 -22 -42 0 -23 -3 -29 -11 -23 -8 7 -27 -8 -59
-46 -45 -52 -86 -87 -185 -158 -37 -27 -48 -52 -17 -40 17 7 37 -18 27 -35 -6
-10 -14 -7 -34 13 -23 23 -29 25 -51 15 -14 -7 -23 -16 -19 -22 3 -6 1 -7 -5
-3 -6 4 -22 0 -34 -8 -53 -34 -277 -107 -401 -131 -72 -15 -154 -31 -182 -36
-83 -16 -728 -23 -877 -9 -72 7 -139 16 -147 20 -9 4 -52 13 -96 20 -98 14
-236 48 -252 62 -16 13 -46 -8 -36 -24 3 -6 0 -9 -7 -6 -20 6 -24 28 -6 28 31
0 15 17 -26 29 -56 17 -209 100 -278 151 -30 22 -79 63 -108 92 -29 28 -55 48
-59 44 -4 -4 -1 -12 7 -17 11 -8 12 -12 2 -16 -6 -2 -10 -9 -7 -13 3 -5 1 -11
-3 -14 -5 -3 -8 15 -7 39 2 38 -3 52 -42 105 -24 33 -48 72 -53 85 -6 16 -15
23 -24 19 -13 -5 -11 -12 11 -40 15 -21 20 -32 11 -29 -9 4 -21 18 -27 32 -6
14 -14 23 -17 20 -3 -3 4 -24 16 -47 12 -23 19 -45 16 -48 -3 -3 -6 0 -6 7 0
7 -5 9 -12 5 -7 -4 -8 -3 -4 4 4 6 -1 26 -10 44 -19 36 -26 104 -13 129 5 10
3 23 -5 35 -8 10 -11 25 -8 33 3 9 1 12 -6 7 -8 -5 -11 -1 -10 11 3 23 -21
132 -34 157 -11 21 -13 457 -2 500 7 29 -3 79 -14 72 -4 -2 -7 10 -7 27 0 38
19 75 29 58 4 -6 2 -11 -4 -11 -7 0 -9 -7 -6 -16 3 -8 2 -13 -3 -10 -4 3 -6
-6 -3 -19 2 -14 9 -28 15 -32 6 -4 8 3 3 21 -3 14 -3 26 2 26 5 0 9 6 10 13 0
6 4 23 7 37 5 19 4 22 -4 10 -7 -9 -11 -10 -11 -3 0 6 5 15 10 18 20 12 10 26
-11 14 -24 -12 -50 3 -28 16 8 6 10 4 4 -5 -6 -10 -4 -11 11 -5 10 4 26 7 35
7 10 0 20 16 29 46 8 26 14 49 13 52 -1 3 -5 14 -9 25 -7 20 -6 20 8 1 15 -19
16 -19 24 5 4 13 7 27 6 32 -1 4 3 7 9 7 6 0 9 7 5 15 -3 8 0 14 7 12 7 -1 12
6 12 15 0 9 4 20 9 25 5 5 6 2 2 -7 -4 -8 0 -6 8 4 9 11 16 24 16 29 0 6 14
23 30 39 17 16 28 33 25 39 -4 5 -2 8 3 7 6 -2 30 15 54 38 59 55 178 141 222
159 20 9 36 19 36 23 0 10 -127 9 -137 -2 -4 -4 -1 -11 7 -16 20 -13 33 -13
25 0 -3 6 1 7 10 4 9 -4 14 -12 12 -18 -5 -12 -11 -12 -42 0 -17 7 -18 5 -8
-8 11 -12 9 -18 -7 -33 -11 -10 -23 -16 -26 -12 -3 3 4 11 16 17 18 9 20 14 9
21 -9 5 -19 0 -30 -18 -9 -14 -19 -20 -23 -15 -3 6 0 13 6 15 7 3 4 6 -7 6
-16 1 -17 3 -5 11 9 6 17 5 22 -3 8 -13 10 -8 12 53 2 36 11 41 50 24 13 -5
17 -4 12 4 -8 13 34 7 43 -6 3 -4 16 -8 29 -8 20 0 27 8 23 29 -1 5 3 6 8 2 6
-3 8 -12 4 -20 -3 -10 1 -15 12 -15 9 0 13 4 10 10 -3 5 0 8 7 5 7 -3 49 9 93
26 110 42 156 55 255 74 47 9 114 23 150 31 36 8 117 19 180 24 127 9 810 9
804 -1z m401 1 c-3 -5 -22 -10 -41 -10 -21 0 -33 -4 -29 -10 3 -5 1 -10 -4
-10 -6 0 -11 6 -11 14 0 10 14 16 43 19 23 2 43 4 45 5 2 1 0 -2 -3 -8z m2162
-4 c0 -8 -6 -12 -15 -9 -11 5 -11 7 0 14 7 5 13 9 14 9 0 0 1 -6 1 -14z m46
-12 c-8 -20 -22 -17 -20 5 0 10 7 17 13 14 7 -3 10 -11 7 -19z m1594 20 c-3
-3 -12 -4 -19 -1 -8 3 -5 6 6 6 11 1 17 -2 13 -5z m120 0 c-3 -3 -12 -4 -19
-1 -8 3 -5 6 6 6 11 1 17 -2 13 -5z m-8656 -11 c-11 -5 -11 -7 0 -14 11 -7 10
-9 -3 -9 -10 0 -18 7 -18 15 0 8 8 15 18 14 12 0 13 -2 3 -6z m3202 0 c-7 -2
-19 -2 -25 0 -7 3 -2 5 12 5 14 0 19 -2 13 -5z m1602 -11 c-3 -3 -11 0 -18 7
-9 10 -8 11 6 5 10 -3 15 -9 12 -12z m2292 12 c-3 -3 -12 -4 -19 -1 -8 3 -5 6
6 6 11 1 17 -2 13 -5z m1401 -12 c22 -7 42 -8 58 -2 17 7 23 6 21 -3 -1 -8 11
-12 33 -12 19 0 37 -2 40 -5 3 -3 53 -15 111 -26 58 -12 121 -29 140 -37 105
-48 163 -66 172 -54 6 8 7 6 3 -6 -8 -26 50 -60 78 -45 18 10 19 9 9 -4 -11
-12 -9 -18 6 -32 15 -13 20 -14 24 -4 4 11 7 10 18 -1 9 -9 9 -11 2 -7 -7 4
-13 2 -13 -4 0 -15 78 -88 87 -81 3 3 3 0 -1 -7 -11 -19 24 -57 37 -40 5 8 6
3 3 -14 -4 -16 -2 -28 3 -28 12 0 22 29 15 43 -5 9 -3 9 6 0 16 -15 21 -59 10
-89 -7 -16 -6 -24 1 -24 6 0 8 -7 5 -17 -4 -9 -2 -19 4 -23 11 -7 17 -60 19
-155 1 -39 4 -47 12 -35 9 13 10 13 6 -2 -3 -9 -2 -18 4 -20 5 -2 -1 -9 -13
-17 -21 -13 -22 -13 -9 2 12 16 -29 17 -585 17 l-599 0 -28 40 c-18 25 -33 37
-42 34 -8 -4 -12 -11 -9 -16 4 -6 -5 -3 -19 7 -16 10 -24 22 -20 31 3 8 8 12
11 10 3 -3 11 -1 19 5 10 9 13 8 13 -5 0 -9 -3 -15 -7 -15 -5 1 -15 1 -23 0
-13 -1 -13 -3 -1 -10 9 -6 22 -6 32 0 14 7 22 3 38 -17 23 -30 28 -25 9 8 -22
37 -69 77 -107 90 -24 9 -92 13 -206 13 -144 0 -175 -3 -202 -18 -25 -13 -33
-24 -33 -45 0 -22 -2 -24 -11 -12 -9 13 -10 13 -6 0 2 -8 11 -15 20 -15 9 0
22 -6 29 -13 11 -11 8 -12 -14 -7 -38 10 -46 -15 -19 -53 15 -21 37 -34 79
-46 74 -20 325 -39 544 -40 91 -1 164 -4 161 -8 -2 -5 31 -8 74 -8 97 0 328
-25 408 -45 33 -7 86 -23 119 -35 32 -12 65 -19 73 -16 8 3 12 2 9 -3 -3 -5 8
-14 26 -20 17 -6 39 -18 47 -25 9 -8 23 -16 31 -18 8 -2 21 -10 28 -18 10 -11
15 -12 18 -2 3 6 11 12 17 12 8 0 8 -3 -1 -12 -9 -9 -5 -17 15 -35 l26 -25 21
21 c11 12 15 21 8 21 -6 0 -12 5 -12 10 0 16 20 12 27 -6 3 -9 0 -19 -7 -24
-9 -6 -9 -13 0 -31 10 -23 10 -23 -4 -5 -9 11 -19 17 -22 13 -4 -3 11 -28 33
-54 22 -26 43 -56 46 -65 7 -20 29 -25 26 -5 -3 28 4 40 10 17 5 -17 3 -28 -6
-35 -12 -9 -12 -16 -2 -40 7 -17 14 -39 16 -50 2 -11 6 -27 9 -35 4 -13 6 -13
14 0 6 9 10 10 10 3 0 -6 -5 -15 -11 -18 -6 -4 -8 -14 -5 -22 12 -31 15 -211
5 -298 -6 -49 -12 -99 -13 -110 -1 -11 -7 -30 -14 -43 -9 -16 -10 -27 -3 -40
8 -12 10 -13 11 -3 0 8 2 12 5 9 3 -3 3 -13 -1 -22 -6 -15 -7 -15 -21 1 -14
17 -14 17 -9 1 3 -10 0 -18 -6 -18 -7 0 -6 -5 2 -15 9 -11 16 -12 25 -5 26 22
10 -45 -18 -72 -34 -34 -36 -20 -2 16 14 15 25 32 25 39 0 7 -4 6 -10 -3 -9
-13 -10 -13 -10 0 0 8 -8 0 -17 -18 -8 -18 -18 -30 -21 -28 -3 3 0 11 5 18 15
19 23 48 15 48 -5 0 -18 -17 -30 -39 -38 -68 -148 -176 -223 -221 -68 -40 -71
-43 -50 -54 12 -7 18 -15 15 -19 -4 -4 -1 -7 7 -7 11 0 11 -2 -1 -10 -8 -5
-22 -9 -30 -9 -10 0 -8 3 5 9 l20 9 -20 0 c-15 1 -17 3 -7 10 11 6 10 10 -3
15 -16 6 -127 -28 -151 -46 -6 -4 -43 -16 -83 -26 -39 -10 -69 -21 -66 -24 3
-2 -9 -2 -26 0 -18 3 -29 1 -26 -4 4 -8 -21 -11 -102 -13 -13 -1 -29 -5 -35
-10 -6 -5 -78 -15 -161 -21 -187 -15 -1049 -8 -1140 10 -33 6 -67 13 -75 14
-8 2 -27 6 -42 10 -33 10 -77 -2 -57 -14 20 -13 -69 0 -123 17 -53 16 -55 18
-32 27 8 3 13 2 10 -3 -8 -12 37 -23 61 -15 14 5 15 4 4 -4 -11 -8 -2 -10 30
-7 24 1 46 3 49 5 3 1 -32 10 -77 20 -44 10 -106 30 -138 44 -43 20 -60 24
-75 16 -11 -6 -18 -16 -16 -23 1 -6 1 -8 -2 -4 -2 4 -10 3 -18 -4 -8 -6 -14
-8 -14 -4 0 4 12 17 27 28 l26 21 -39 18 c-93 43 -264 174 -264 202 0 5 -9 19
-20 31 -11 11 -30 42 -43 68 -13 26 -27 44 -30 40 -4 -3 0 -15 8 -27 8 -11 15
-25 15 -31 0 -5 -5 -2 -11 8 -9 15 -13 16 -27 5 -15 -11 -15 -11 -5 2 7 9 10
31 7 50 -4 26 -2 31 5 20 12 -17 14 -10 5 14 -3 9 -9 14 -14 11 -4 -2 -5 6 -3
19 6 29 -16 46 -29 22 -5 -9 -13 -16 -19 -16 -5 0 -2 11 8 24 10 13 21 22 26
19 10 -6 9 9 -3 27 -5 8 -10 10 -10 4 0 -16 -36 -55 -44 -47 -3 3 -6 -2 -6
-12 0 -10 -3 -16 -6 -12 -9 9 6 47 19 44 6 -1 20 15 31 36 18 31 19 39 7 46
-8 5 -11 16 -8 26 4 9 3 14 -3 10 -6 -3 -10 3 -10 14 0 12 5 21 11 21 7 0 8
11 4 30 l-7 30 616 0 616 0 1 -22 c1 -13 1 -30 0 -40 -1 -9 3 -19 9 -23 5 -3
10 -15 10 -25 0 -11 16 -35 36 -55 27 -27 41 -34 57 -30 17 5 19 4 7 -4 -13
-9 -13 -11 2 -11 9 0 18 -4 20 -9 7 -22 248 -43 248 -22 0 4 11 6 25 3 13 -2
33 -1 42 3 10 5 22 7 26 6 4 0 17 4 28 10 20 10 20 11 2 25 -16 13 -15 13 10
2 25 -10 30 -9 55 16 l27 28 -25 -13 c-22 -11 -24 -11 -12 3 9 11 9 18 3 23
-6 3 -9 27 -6 55 4 42 2 51 -17 64 l-21 15 21 -2 c13 -1 23 -10 27 -24 3 -13
10 -21 15 -18 6 3 10 1 10 -4 0 -6 -7 -11 -15 -11 -20 0 -19 -15 3 -36 16 -17
16 -18 0 -11 -20 7 -21 6 -12 -17 3 -9 13 -16 21 -16 8 0 11 5 8 10 -4 6 -1
18 6 26 10 12 10 15 -1 12 -7 -2 -15 3 -17 10 -3 7 1 10 10 6 11 -4 13 1 9 21
-2 15 -11 29 -18 32 -8 3 -11 9 -8 14 9 16 -85 51 -176 66 -47 8 -233 20 -415
28 -379 16 -554 34 -620 65 -11 5 -45 16 -76 24 -92 26 -202 83 -279 146 -24
19 -47 34 -51 33 -5 -2 -5 5 -2 14 4 11 3 14 -5 9 -7 -4 -12 -2 -12 5 0 7 -11
26 -24 43 -13 17 -33 51 -46 76 -12 25 -27 48 -33 51 -5 4 -7 15 -3 25 6 18 5
17 -9 0 -17 -23 -20 -40 -5 -31 6 3 13 -2 17 -12 3 -10 13 -26 21 -35 14 -16
13 -18 -2 -18 -10 0 -19 11 -23 31 -4 22 -8 27 -14 17 -7 -10 -9 -11 -9 0 0 7
-5 10 -10 7 -10 -6 -10 15 0 25 10 10 30 50 30 60 0 5 -4 10 -10 10 -5 0 -10
-6 -10 -14 0 -8 -4 -17 -9 -20 -4 -3 -6 6 -3 19 2 14 9 25 14 25 6 0 8 12 4
28 -5 23 -14 107 -17 162 -1 8 1 54 5 101 3 48 1 101 -4 119 -5 19 -8 36 -5
38 2 2 8 -11 13 -29 6 -23 11 -29 15 -19 22 54 39 107 40 122 1 9 5 16 10 15
5 -1 11 5 12 14 2 9 26 38 54 64 48 45 60 70 34 70 -6 0 -15 4 -20 8 -4 5 -1
7 7 5 8 -1 14 2 13 7 -1 6 10 11 23 11 13 1 24 -2 24 -8 0 -5 -4 -7 -9 -4 -5
3 -11 -1 -15 -9 -8 -22 1 -19 57 21 28 21 72 46 97 57 25 11 64 28 87 38 23
11 47 19 54 19 7 0 9 3 6 7 -4 3 7 16 23 28 16 12 27 25 23 29 -4 4 1 4 11 0
15 -6 14 -9 -14 -27 -17 -11 -29 -21 -27 -23 1 -2 45 5 97 15 185 36 276 51
320 55 112 9 1117 -1 1148 -12z m-9558 -2 c0 -5 -10 -10 -22 -10 -19 0 -20 2
-8 10 19 13 30 13 30 0z m8115 0 c-3 -5 -10 -10 -16 -10 -5 0 -9 5 -9 10 0 6
7 10 16 10 8 0 12 -4 9 -10z m112 4 c-3 -3 -12 -4 -19 -1 -8 3 -5 6 6 6 11 1
17 -2 13 -5z m1701 -15 c34 -13 26 -18 -15 -8 -55 12 -54 2 1 -12 25 -6 46
-15 46 -20 0 -12 -17 -12 -24 0 -3 5 -21 12 -40 15 -22 4 -36 13 -39 26 -4 17
-1 19 21 13 15 -3 37 -10 50 -14z m-5643 1 c3 -5 1 -10 -4 -10 -6 0 -11 5 -11
10 0 6 2 10 4 10 3 0 8 -4 11 -10z m1365 6 c0 -3 -4 -8 -10 -11 -5 -3 -10 -1
-10 4 0 6 5 11 10 11 6 0 10 -2 10 -4z m37 -2 c-3 -3 -12 -4 -19 -1 -8 3 -5 6
6 6 11 1 17 -2 13 -5z m101 -11 c-10 -2 -26 -2 -35 0 -10 3 -2 5 17 5 19 0 27
-2 18 -5z m77 -18 c1 -11 7 -19 14 -17 7 1 10 -2 6 -8 -10 -16 -35 8 -28 26 4
12 0 14 -23 9 -22 -5 -26 -4 -14 4 22 16 45 9 45 -14z m2110 19 c13 -5 14 -8
3 -15 -19 -12 -25 -11 -25 6 0 17 0 17 22 9z m178 -1 c-7 -2 -19 -2 -25 0 -7
3 -2 5 12 5 14 0 19 -2 13 -5z m1665 0 c-10 -2 -26 -2 -35 0 -10 3 -2 5 17 5
19 0 27 -2 18 -5z m-8765 -10 c-17 -3 -23 -11 -23 -30 0 -18 4 -24 14 -20 8 3
17 0 19 -7 4 -10 -1 -12 -14 -9 -19 5 -19 -6 -19 -701 l1 -706 699 0 700 0 0
-415 0 -415 -1214 -2 c-668 -2 -1225 0 -1238 4 -16 4 -18 6 -5 7 21 1 23 21 2
21 -10 0 -15 9 -14 28 2 23 2 24 6 5 19 -99 23 82 23 1073 0 725 -3 1093 -10
1089 -7 -4 -7 3 0 20 15 40 12 53 -12 58 -13 2 231 4 542 4 311 0 555 -2 543
-4z m7050 0 c-7 -2 -19 -2 -25 0 -7 3 -2 5 12 5 14 0 19 -2 13 -5z m-2330 -10
c-7 -2 -19 -2 -25 0 -7 3 -2 5 12 5 14 0 19 -2 13 -5z m67 -14 c0 -13 -13 -11
-35 5 -18 13 -18 14 8 9 15 -3 27 -9 27 -14z m2080 5 c0 -11 5 -14 18 -9 13 5
14 3 6 -5 -9 -9 -17 -9 -32 -1 -26 14 -35 14 -27 1 7 -11 -8 -14 -19 -3 -3 4
4 13 16 20 31 17 38 16 38 -3z m-7950 -31 c-11 -17 -11 -17 -6 0 3 10 6 24 7
30 0 9 2 9 5 0 3 -7 0 -20 -6 -30z m3938 16 c-11 -7 -10 -9 1 -9 8 0 12 -3 8
-6 -3 -3 -14 -1 -24 5 -11 6 -13 11 -5 11 7 0 10 4 7 10 -3 6 1 7 10 3 13 -5
14 -7 3 -14z m192 9 c0 -4 -4 -8 -9 -8 -6 0 -12 4 -15 8 -3 5 1 9 9 9 8 0 15
-4 15 -9z m1980 -20 c-28 -10 -25 -20 4 -12 22 5 24 3 22 -36 -1 -39 -2 -40
-17 -22 -8 11 -26 22 -40 26 -23 7 -23 6 -5 -8 11 -9 15 -16 9 -16 -6 0 -16 7
-23 15 -14 17 -35 21 -25 5 3 -6 -1 -7 -9 -4 -9 3 -13 10 -10 15 3 6 -5 8 -18
6 -12 -2 -17 -2 -10 0 7 3 10 9 6 14 -3 5 -10 6 -16 3 -6 -4 -8 -2 -4 4 4 6
-5 12 -21 14 -28 3 -28 4 4 9 18 3 31 3 28 1 -5 -6 33 -36 57 -45 20 -7 31 16
15 34 -10 11 -9 11 5 0 9 -7 22 -10 28 -6 7 5 5 12 -7 21 -16 12 -14 12 15 1
29 -10 30 -12 12 -19z m4070 22 c8 -5 11 -10 5 -10 -5 0 -17 5 -25 10 -8 5
-10 10 -5 10 6 0 17 -5 25 -10z m-6170 -4 c0 -2 -7 -7 -16 -10 -8 -3 -12 -2
-9 4 6 10 25 14 25 6z m45 -6 c3 -6 -1 -7 -9 -4 -18 7 -21 14 -7 14 6 0 13 -4
16 -10z m39 1 c3 -5 -1 -11 -9 -14 -9 -4 -12 -1 -8 9 6 16 10 17 17 5z m6040
0 c4 -5 -4 -7 -16 -5 -13 2 -18 2 -11 -2 7 -3 10 -11 7 -19 -5 -11 4 -13 38
-10 26 3 37 1 29 -4 -11 -7 -9 -11 9 -21 16 -8 19 -15 11 -23 -7 -7 -7 -14 1
-24 8 -11 7 -12 -6 -7 -10 4 -14 13 -11 24 8 26 -38 54 -66 39 -13 -7 -19 -7
-15 -1 3 6 2 13 -4 17 -6 4 -8 11 -5 16 4 5 -2 9 -12 10 -16 0 -16 1 2 9 27
12 43 12 49 1z m-2326 -15 c-10 -7 -15 -16 -11 -19 11 -12 47 -7 67 8 13 10
15 15 6 15 -7 0 -11 3 -7 6 3 3 11 3 17 -1 8 -5 8 -11 -1 -21 -14 -17 2 -19
19 -2 8 8 12 8 12 1 0 -15 -26 -24 -47 -16 -11 4 -14 3 -9 -5 5 -8 2 -10 -9
-6 -24 10 -68 -5 -62 -20 8 -21 -4 -27 -20 -10 -8 8 -19 11 -25 8 -6 -4 -5 3
2 15 6 12 26 31 43 41 36 23 51 26 25 6z m-3828 -16 c-8 -5 -19 -10 -25 -10
-5 0 -3 5 5 10 8 5 20 10 25 10 6 0 3 -5 -5 -10z m57 -6 c-3 -3 -12 -4 -19 -1
-8 3 -5 6 6 6 11 1 17 -2 13 -5z m6183 -4 c0 -5 -5 -10 -11 -10 -5 0 -7 5 -4
10 3 6 8 10 11 10 2 0 4 -4 4 -10z m-6237 -12 c-2 -5 -15 -8 -29 -8 -13 0 -24
3 -24 8 0 4 13 7 29 7 16 0 27 -3 24 -7z m3712 -18 c-3 -5 -2 -10 4 -10 5 0
12 6 14 13 3 6 6 2 6 -10 1 -12 -4 -25 -11 -29 -7 -5 -8 -3 -3 6 6 10 4 12 -7
7 -11 -4 -15 -1 -13 11 5 23 4 22 11 22 3 0 2 -4 -1 -10z m142 4 c-3 -3 -12
-4 -19 -1 -8 3 -5 6 6 6 11 1 17 -2 13 -5z m2310 0 c-3 -3 -12 -4 -19 -1 -8 3
-5 6 6 6 11 1 17 -2 13 -5z m88 -4 c-7 -11 8 -14 19 -3 10 10 46 11 40 1 -3
-5 -11 -7 -18 -6 -6 2 -12 -1 -13 -7 -1 -5 4 -9 12 -7 7 1 16 -1 19 -6 6 -10
-30 -9 -40 1 -12 12 -24 8 -18 -7 3 -8 1 -17 -5 -21 -7 -3 -8 0 -5 9 4 10 1
16 -7 16 -11 0 -11 3 1 10 8 5 11 10 7 10 -9 0 1 20 9 20 3 0 2 -4 -1 -10z
m-3988 -16 c-3 -3 -12 -4 -19 -1 -8 3 -5 6 6 6 11 1 17 -2 13 -5z m1506 -19
c4 -8 1 -17 -6 -21 -7 -4 -9 -4 -5 1 4 4 3 14 -3 22 -7 8 -8 13 -1 13 5 0 12
-7 15 -15z m-1455 -20 c9 -10 -71 4 -81 15 -5 4 10 4 33 0 22 -4 44 -11 48
-15z m-75 -26 c-4 -15 -1 -18 11 -13 9 3 16 10 16 15 0 5 10 9 23 9 19 -1 17
-4 -13 -19 -38 -21 -50 -19 -50 6 0 9 -8 22 -17 30 -16 12 -15 12 8 2 19 -8
25 -17 22 -30z m4072 22 c3 -5 0 -13 -6 -17 -7 -4 -9 -3 -5 4 3 5 0 13 -6 15
-9 4 -10 6 -1 6 6 1 14 -3 18 -8z m-2662 -36 c-7 -21 -12 -19 -10 4 0 11 5 18
9 15 4 -3 5 -11 1 -19z m2747 21 c0 -2 -7 -7 -16 -10 -8 -3 -12 -2 -9 4 6 10
25 14 25 6z m-4093 -43 c-13 -13 -19 -14 -29 -5 -9 9 -7 12 10 12 12 0 22 5
22 12 0 6 3 8 7 4 4 -3 -1 -14 -10 -23z m-2667 8 c0 -5 -7 -11 -15 -15 -9 -3
-15 0 -15 9 0 8 7 15 15 15 8 0 15 -4 15 -9z m4051 -14 c-10 -9 -11 -8 -5 6 3
10 9 15 12 12 3 -3 0 -11 -7 -18z m-4021 3 c0 -5 -5 -10 -11 -10 -5 0 -7 5 -4
10 3 6 8 10 11 10 2 0 4 -4 4 -10z m20 -30 c-8 -5 -11 -13 -6 -17 4 -4 15 2
23 15 9 12 20 22 26 22 5 0 2 -9 -9 -21 -22 -24 -60 -48 -50 -30 4 6 0 11 -8
11 -10 0 -15 -8 -13 -21 1 -12 -2 -23 -8 -25 -5 -2 -10 9 -11 25 -1 23 5 32
30 44 32 15 52 13 26 -3z m3953 5 c19 1 25 -1 18 -8 -16 -16 -44 -18 -53 -4
-10 16 -10 36 0 21 4 -6 20 -10 35 -9z m2749 -17 c-3 -15 -6 -15 -18 -3 -19
18 -18 24 5 22 12 -1 17 -7 13 -19z m-6779 -69 c-5 -5 -8 3 -7 19 3 37 6 41
11 13 3 -13 1 -27 -4 -32z m6837 45 c0 -3 -6 -12 -14 -19 -17 -18 -29 -8 -13
11 12 14 27 18 27 8z m-6890 -58 c0 -7 -8 -20 -17 -27 -15 -12 -16 -12 -10 4
4 10 7 23 7 28 0 5 5 9 10 9 6 0 10 -6 10 -14z m34 -1 c3 -8 1 -15 -4 -15 -6
0 -10 7 -10 15 0 8 2 15 4 15 2 0 6 -7 10 -15z m2883 0 c4 -4 3 -5 -3 -2 -15
9 -27 -20 -12 -29 7 -5 8 -2 3 6 -5 8 -4 11 3 6 6 -4 9 -13 5 -22 -5 -13 -8
-13 -24 2 -13 12 -16 21 -9 29 5 6 7 14 4 18 -3 3 1 4 10 3 8 -1 19 -6 23 -11z
m1099 -30 c-8 -30 -26 -24 -25 8 0 21 1 21 10 2 8 -17 9 -16 5 8 -2 19 0 25 7
18 5 -5 7 -21 3 -36z m-36 25 c0 -5 -5 -10 -11 -10 -5 0 -7 5 -4 10 3 6 8 10
11 10 2 0 4 -4 4 -10z m-3962 -32 c-2 -6 -10 -14 -16 -16 -7 -2 -10 2 -6 12 7
18 28 22 22 4z m3962 -8 c0 -5 -5 -10 -11 -10 -5 0 -7 5 -4 10 3 6 8 10 11 10
2 0 4 -4 4 -10z m-4000 -22 c0 -7 -4 -19 -9 -27 -7 -10 -9 -7 -8 12 2 26 17
39 17 15z m2996 -27 c5 8 10 6 16 -6 7 -11 6 -21 -2 -28 -8 -9 -9 -7 -4 8 7
18 6 18 -9 6 -14 -11 -17 -11 -17 0 0 12 -2 12 -9 1 -7 -11 -9 -10 -14 3 -4 9
-3 13 3 10 12 -7 13 7 3 21 -5 5 0 1 9 -9 12 -12 19 -14 24 -6z m1024 8 c0 -6
-4 -7 -10 -4 -5 3 -10 11 -10 16 0 6 5 7 10 4 6 -3 10 -11 10 -16z m-4076 -93
c-1 -17 -3 -35 -3 -41 -1 -5 -8 1 -17 13 -9 13 -13 26 -10 29 3 4 6 0 6 -8 0
-12 2 -12 10 1 5 9 5 19 0 25 -6 8 -5 12 3 12 9 0 13 -11 11 -31z m7036 -1 c0
-8 -4 -15 -10 -15 -5 0 -10 7 -10 15 0 8 5 15 10 15 6 0 10 -7 10 -15z m-1410
-15 c0 -5 -2 -10 -4 -10 -3 0 -8 5 -11 10 -3 6 -1 10 4 10 6 0 11 -4 11 -10z
m1427 -12 c-3 -8 -6 -5 -6 6 -1 11 2 17 5 13 3 -3 4 -12 1 -19z m-1696 1 c-53
-10 -56 -13 -42 -36 10 -17 10 -17 11 0 0 23 22 22 51 -3 19 -15 21 -19 7 -20
-9 0 -18 6 -21 13 -4 10 -7 10 -18 0 -20 -19 -27 -16 -45 18 -8 17 -12 29 -7
26 4 -2 17 -1 28 4 11 4 34 7 50 7 23 0 20 -2 -14 -9z m239 1 c0 -5 -4 -10
-10 -10 -5 0 -10 5 -10 10 0 6 5 10 10 10 6 0 10 -4 10 -10z m70 6 c0 -2 -7
-7 -16 -10 -8 -3 -12 -2 -9 4 6 10 25 14 25 6z m59 -20 c9 -10 6 -13 -17 -11
-53 4 -58 6 -37 15 29 12 41 12 54 -4z m-435 -36 c-6 -5 -24 21 -24 34 0 6 6
1 14 -10 8 -10 12 -21 10 -24z m281 30 c3 -5 1 -10 -4 -10 -6 0 -11 5 -11 10
0 6 2 10 4 10 3 0 8 -4 11 -10z m1465 -4 c0 -3 -4 -8 -10 -11 -5 -3 -10 -1
-10 4 0 6 5 11 10 11 6 0 10 -2 10 -4z m-7073 -38 c-3 -8 -6 -5 -6 6 -1 11 2
17 5 13 3 -3 4 -12 1 -19z m7083 -14 c0 -8 -4 -14 -8 -14 -4 0 -8 9 -8 19 0
11 4 17 8 15 4 -3 8 -12 8 -20z m23 1 c-7 -21 -12 -19 -10 4 0 11 5 18 9 15 4
-3 5 -11 1 -19z m-1678 -15 c-3 -5 -12 -10 -18 -10 -7 0 -6 4 3 10 19 12 23
12 15 0z m-121 -15 c8 -9 13 -22 9 -31 -4 -11 -9 -9 -19 12 -21 39 -17 46 10
19z m81 6 c3 -5 0 -11 -7 -14 -7 -2 1 -3 17 -1 28 3 28 2 8 -8 -28 -13 -55 -4
-47 17 7 17 20 20 29 6z m-5405 -17 c0 -2 -7 -4 -15 -4 -8 0 -15 4 -15 10 0 5
7 7 15 4 8 -4 15 -8 15 -10z m5563 9 c-7 -2 -19 -2 -25 0 -7 3 -2 5 12 5 14 0
19 -2 13 -5z m1557 -19 c0 -8 -4 -14 -8 -14 -4 0 -8 9 -8 19 0 11 4 17 8 15 4
-3 8 -12 8 -20z m-1605 6 c3 -5 -1 -10 -9 -10 -9 0 -16 5 -16 10 0 6 4 10 9
10 6 0 13 -4 16 -10z m179 2 c2 -4 -14 -6 -37 -4 -68 5 -76 10 -20 11 28 0 54
-2 57 -7z m-131 -9 c-7 -2 -19 -2 -25 0 -7 3 -2 5 12 5 14 0 19 -2 13 -5z
m-200 -22 c3 -13 1 -18 -9 -14 -7 2 -10 11 -7 19 7 19 10 18 16 -5z m96 10
c19 -12 -4 -25 -49 -27 -19 -1 -26 1 -16 3 15 4 16 7 5 14 -12 7 -11 9 2 9 8
0 20 -5 27 -12 6 -6 15 -8 19 -4 4 4 1 11 -7 16 -8 6 -10 10 -5 10 6 0 16 -4
24 -9z m51 -11 c0 -5 -4 -10 -9 -10 -6 0 -13 5 -16 10 -3 6 1 10 9 10 9 0 16
-4 16 -10z m130 -11 c25 -1 -73 -29 -104 -29 -24 0 -27 2 -16 15 7 8 18 15 24
15 6 0 4 -5 -4 -10 -12 -8 -12 -10 5 -10 11 0 31 3 44 7 23 6 24 7 5 15 -15 7
-14 7 6 3 14 -2 32 -5 40 -6z m65 1 c13 -6 15 -9 5 -9 -8 0 -22 4 -30 9 -18
12 -2 12 25 0z m174 -6 c2 -2 -22 -5 -55 -5 -52 -1 -55 -3 -24 -9 34 -7 34 -7
5 -8 -16 0 -39 3 -50 8 l-20 9 20 1 20 1 -20 8 c-11 5 10 6 50 3 39 -2 72 -6
74 -8z m-392 -10 c-3 -3 -12 -4 -19 -1 -8 3 -5 6 6 6 11 1 17 -2 13 -5z m223
-4 c24 -8 24 -8 -7 -9 -17 -1 -35 4 -38 9 -7 11 9 11 45 0z m322 3 c-12 -2
-20 -8 -17 -12 2 -5 -8 -6 -23 -3 l-27 6 25 7 c14 4 34 7 45 7 16 -1 16 -2 -3
-5z m375 -9 c-3 -3 -12 -4 -19 -1 -8 3 -5 6 6 6 11 1 17 -2 13 -5z m-2310 -26
c-3 -8 -6 -5 -6 6 -1 11 2 17 5 13 3 -3 4 -12 1 -19z m2040 16 c-3 -3 -12 -4
-19 -1 -8 3 -5 6 6 6 11 1 17 -2 13 -5z m438 -4 c3 -5 14 -10 23 -10 12 0 13
3 5 8 -7 4 9 8 35 9 43 1 44 0 14 -7 -18 -4 -36 -11 -40 -15 -4 -5 3 -5 16 -2
13 3 20 1 16 -5 -3 -5 -20 -6 -37 -3 -23 5 -28 3 -17 -4 8 -5 11 -13 7 -18 -5
-4 -11 -3 -15 3 -4 6 -14 14 -22 17 -11 4 -10 6 5 7 20 1 20 1 1 15 -11 8 -15
15 -9 15 7 0 15 -4 18 -10z m-150 -18 c-3 -3 -11 0 -18 7 -9 10 -8 11 6 5 10
-3 15 -9 12 -12z m-58 2 c-3 -3 -12 -4 -19 -1 -8 3 -5 6 6 6 11 1 17 -2 13 -5z
m110 0 c-3 -3 -12 -4 -19 -1 -8 3 -5 6 6 6 11 1 17 -2 13 -5z m40 -20 c-3 -3
-12 -4 -19 -1 -8 3 -5 6 6 6 11 1 17 -2 13 -5z m137 -6 c-5 -8 -2 -9 10 -5 27
11 64 -3 69 -25 4 -14 12 -19 24 -16 14 4 19 -1 21 -16 1 -16 -1 -17 -8 -6 -7
11 -13 12 -36 2 -14 -7 -29 -10 -32 -7 -3 3 -1 5 5 5 19 0 23 29 7 45 -9 8
-23 15 -32 15 -15 0 -15 -2 -2 -10 20 -13 4 -13 -20 0 -13 7 -21 6 -30 -5 -7
-8 -16 -15 -21 -15 -18 0 -8 15 19 32 34 20 35 21 26 6z m-107 -14 c-3 -3 -12
-4 -19 -1 -8 3 -5 6 6 6 11 1 17 -2 13 -5z m351 -18 c-7 -8 -15 -12 -17 -11
-5 6 10 25 20 25 5 0 4 -6 -3 -14z m-193 -24 c-6 -7 -65 9 -65 17 0 5 15 3 34
-3 19 -6 33 -12 31 -14z m243 16 c-3 -7 -13 -15 -24 -17 -16 -3 -17 -1 -5 13
16 19 34 21 29 4z m-78 -18 c0 -5 -2 -10 -4 -10 -3 0 -8 5 -11 10 -3 6 -1 10
4 10 6 0 11 -4 11 -10z m-3591 -105 c-1 -11 -5 -1 -11 23 -5 23 -13 40 -17 38
-5 -3 -6 7 -3 21 5 25 6 23 18 -18 8 -24 13 -53 13 -64z m-3329 65 c0 -11 -2
-20 -4 -20 -2 0 -6 9 -9 20 -3 11 -1 20 4 20 5 0 9 -9 9 -20z m6920 10 c0 -5
-4 -10 -10 -10 -5 0 -7 -7 -4 -15 5 -12 2 -12 -25 1 -35 18 -40 24 -12 17 10
-3 22 0 25 6 9 14 26 14 26 1z m32 -8 c-7 -5 -10 -16 -6 -25 3 -9 2 -17 -4
-17 -5 0 -8 10 -7 23 3 28 3 27 18 27 9 0 9 -2 -1 -8z m38 -46 c0 -11 -19 -15
-25 -6 -3 5 1 10 9 10 9 0 16 -2 16 -4z m27 -18 c-3 -8 -6 -5 -6 6 -1 11 2 17
5 13 3 -3 4 -12 1 -19z m22 -46 c-1 -15 -2 -15 -6 1 -2 9 -9 14 -15 11 -7 -4
-8 -2 -4 5 10 15 26 4 25 -17z m-7052 -14 c-3 -7 -5 -2 -5 12 0 14 2 19 5 13
2 -7 2 -19 0 -25z m4173 -23 c13 8 50 -17 50 -33 0 -9 6 -12 15 -8 8 3 15 1
15 -5 0 -6 5 -7 12 -3 6 4 8 3 4 -4 -3 -5 -1 -12 5 -14 7 -2 13 -17 15 -33 2
-24 1 -27 -7 -12 -6 9 -8 21 -5 25 3 5 -1 9 -8 9 -9 0 -12 -12 -10 -36 2 -24
0 -31 -6 -21 -5 8 -7 23 -4 32 4 14 1 17 -13 12 -17 -5 -17 -5 0 6 17 11 25
36 7 25 -5 -3 -17 6 -26 20 -17 26 -44 34 -45 13 -1 -21 -18 25 -17 47 1 17 1
16 5 -3 2 -12 8 -20 13 -17z m2935 16 c-3 -10 1 -25 8 -33 12 -12 12 -16 -1
-27 -13 -12 -14 -12 -10 0 3 8 1 22 -3 31 -5 9 -6 24 -3 32 9 23 17 20 9 -3z
m-3767 -66 c0 -14 -1 -15 -5 -5 -3 8 -12 21 -21 28 -10 7 -11 12 -4 12 7 0 12
8 13 18 1 22 17 -25 17 -53z m9 43 c-3 -8 -6 -5 -6 6 -1 11 2 17 5 13 3 -3 4
-12 1 -19z m3830 -42 c-7 -14 -13 -23 -15 -21 -7 6 9 45 18 45 4 0 3 -11 -3
-24z m-37 -27 c0 -6 -4 -7 -10 -4 -5 3 -10 11 -10 16 0 6 5 7 10 4 6 -3 10
-11 10 -16z m-3805 -49 c-4 -12 -9 -19 -12 -17 -3 3 -2 15 2 27 4 12 9 19 12
17 3 -3 2 -15 -2 -27z m988 -27 c-3 -7 0 -13 6 -13 6 0 11 5 11 12 0 9 3 9 12
0 17 -17 20 -52 5 -52 -8 0 -7 -4 3 -10 20 -13 8 -13 -25 0 -19 7 -25 15 -21
26 3 8 2 23 -3 33 -7 13 -6 18 4 18 7 0 11 -6 8 -14z m2855 -34 c-3 -8 -7 -3
-11 10 -4 17 -3 21 5 13 5 -5 8 -16 6 -23z m-7181 -36 c-3 -10 -5 -2 -5 17 0
19 2 27 5 18 2 -10 2 -26 0 -35z m4406 26 c5 -3 2 -9 -5 -12 -9 -3 -14 3 -15
15 -1 11 1 16 5 12 4 -5 11 -12 15 -15z m-1056 -11 c-3 -8 -6 -5 -6 6 -1 11 2
17 5 13 3 -3 4 -12 1 -19z m1113 -38 c-1 -12 -3 -12 -14 2 -10 13 -15 15 -24
6 -9 -9 -12 -9 -12 0 0 7 5 12 11 12 5 0 7 5 4 11 -4 6 2 5 14 -3 12 -7 21
-20 21 -28z m-30 -2 c11 3 12 2 4 -8 -16 -17 -47 -9 -50 13 -2 17 -1 17 14 4
9 -8 24 -12 32 -9z m-1123 -20 c-3 -8 -6 -5 -6 6 -1 11 2 17 5 13 3 -3 4 -12
1 -19z m1167 -12 c-3 -14 -11 -26 -16 -26 -5 0 -7 6 -4 13 3 6 9 20 12 30 10
27 16 13 8 -17z m2784 -3 c-16 -37 -28 -51 -28 -32 0 14 27 59 35 59 3 0 -1
-12 -7 -27z m-2743 -3 c-10 -11 -23 -20 -28 -20 -6 0 -2 9 8 20 10 11 23 20
28 20 6 0 2 -9 -8 -20z m45 1 c0 -5 -9 -11 -21 -14 -16 -4 -18 -3 -8 9 13 16
29 19 29 5z m-1230 -25 c0 -13 2 -39 5 -57 4 -25 3 -29 -3 -14 -14 32 -22 95
-11 95 5 0 9 -11 9 -24z m3937 -8 c-3 -8 -6 -5 -6 6 -1 11 2 17 5 13 3 -3 4
-12 1 -19z m-2700 6 c-3 -3 -12 -4 -19 -1 -8 3 -5 6 6 6 11 1 17 -2 13 -5z
m58 -3 c3 -5 2 -12 -3 -15 -5 -3 -9 1 -9 9 0 17 3 19 12 6z m-1317 -26 c0 -14
-4 -25 -9 -25 -10 0 -11 12 -3 34 9 22 12 20 12 -9z m1352 15 c0 -5 -4 -10
-10 -10 -5 0 -10 5 -10 10 0 6 5 10 10 10 6 0 10 -4 10 -10z m-243 -6 c-3 -3
-12 -4 -19 -1 -8 3 -5 6 6 6 11 1 17 -2 13 -5z m-5352 -26 c6 -4 0 -8 -12 -8
-16 0 -21 4 -16 15 3 9 8 12 12 8 3 -4 11 -11 16 -15z m27 -26 c-7 -2 -11 -10
-8 -18 3 -8 -1 -14 -10 -14 -15 0 -15 2 0 25 9 13 16 32 17 42 1 12 3 10 8 -7
5 -18 3 -26 -7 -28z m5025 32 c-3 -3 -12 -4 -19 -1 -8 3 -5 6 6 6 11 1 17 -2
13 -5z m599 -9 c-4 -10 5 -19 27 -29 l32 -13 -53 2 c-29 1 -56 6 -60 10 -4 4
9 5 28 1 21 -4 31 -3 25 3 -6 5 -21 11 -35 14 -24 4 -24 4 3 6 15 0 27 6 27
11 0 6 3 10 6 10 3 0 4 -7 0 -15z m2521 -22 c-3 -10 -5 -4 -5 12 0 17 2 24 5
18 2 -7 2 -21 0 -30z m-8860 5 c356 1 650 -1 654 -5 5 -5 -285 -7 -642 -5
-358 1 -648 -1 -645 -6 2 -4 0 -14 -6 -22 -8 -12 -9 -12 -4 2 3 10 1 20 -4 23
-6 4 -10 12 -9 18 0 7 2 8 5 2 3 -7 227 -9 651 -7z m6502 -8 c7 -4 -11 -6 -40
-4 -42 3 -48 1 -29 -6 l25 -9 -25 2 c-15 2 -24 8 -22 16 2 7 -3 11 -10 9 -7
-3 -22 -1 -33 3 -12 6 7 7 50 3 39 -3 76 -9 84 -14z m2383 -5 c3 -13 1 -22 -3
-19 -9 5 -13 44 -5 44 2 0 6 -11 8 -25z m-3945 -7 c-3 -8 -6 -5 -6 6 -1 11 2
17 5 13 3 -3 4 -12 1 -19z m3906 2 c3 -11 1 -20 -4 -20 -5 0 -9 9 -9 20 0 11
2 20 4 20 2 0 6 -9 9 -20z m-2188 0 c-3 -5 -12 -10 -18 -10 -7 0 -6 4 3 10 19
12 23 12 15 0z m-935 -13 c-27 -15 -36 -14 -25 2 3 6 16 11 28 11 21 0 21 -1
-3 -13z m113 6 c-13 -2 -35 -2 -50 0 -16 2 -5 4 22 4 28 0 40 -2 28 -4z m265
0 c-32 -2 -84 -2 -115 0 -32 2 -6 3 57 3 63 0 89 -1 58 -3z m465 0 c-7 -2 -19
-2 -25 0 -7 3 -2 5 12 5 14 0 19 -2 13 -5z m-4932 -36 c-10 -9 -11 -8 -5 6 3
10 9 15 12 12 3 -3 0 -11 -7 -18z m4132 16 c-7 -2 -19 -2 -25 0 -7 3 -2 5 12
5 14 0 19 -2 13 -5z m1152 -3 c5 -8 11 -7 21 1 8 6 16 10 19 7 2 -2 -3 -11
-13 -19 -15 -13 -19 -12 -34 3 -10 10 -14 18 -9 18 6 0 13 -5 16 -10z m465
-30 l55 -7 -45 -1 c-25 -1 -70 5 -100 13 -51 14 -52 14 -10 8 25 -3 70 -9 100
-13z m17 14 c-3 -3 -12 -4 -19 -1 -8 3 -5 6 6 6 11 1 17 -2 13 -5z m-1649 -19
c-18 -10 -25 -21 -21 -33 2 -10 0 -34 -6 -53 l-10 -34 5 41 c4 31 1 46 -13 59
-13 13 -13 17 -3 13 8 -2 21 1 28 9 7 7 21 13 30 13 12 -1 9 -5 -10 -15z
m1222 5 c0 -5 -5 -10 -11 -10 -5 0 -7 5 -4 10 3 6 8 10 11 10 2 0 4 -4 4 -10z
m260 6 c0 -3 -4 -8 -10 -11 -5 -3 -10 -1 -10 4 0 6 5 11 10 11 6 0 10 -2 10
-4z m258 -4 c9 -7 8 -13 -8 -27 -17 -15 -23 -16 -33 -5 -7 8 -8 11 -1 7 7 -4
17 -1 23 7 9 11 9 15 -1 19 -7 3 -8 6 -3 6 6 0 16 -3 23 -7z m-5863 -12 c3 -5
1 -10 -4 -10 -6 0 -11 5 -11 10 0 6 2 10 4 10 3 0 8 -4 11 -10z m5680 0 c16
-7 11 -9 -20 -9 -29 -1 -36 2 -25 9 17 11 19 11 45 0z m-5645 -35 c0 -5 -5 -3
-10 5 -5 8 -10 20 -10 25 0 6 5 3 10 -5 5 -8 10 -19 10 -25z m7199 -2 c-1 -37
-1 -37 -8 -8 -7 28 -5 45 5 45 2 0 3 -17 3 -37z m-1489 17 c0 -5 -7 -10 -16
-10 -8 0 -12 5 -9 10 3 6 10 10 16 10 5 0 9 -4 9 -10z m-1669 -37 c-9 -16 -10
-15 -9 9 2 16 6 24 11 19 5 -5 5 -17 -2 -28z m1338 20 c-7 -10 -14 -20 -16
-22 -1 -1 -7 0 -13 4 -8 5 -4 12 12 20 31 18 32 18 17 -2z m-5391 -30 c6 -2
12 2 12 9 0 6 2 9 5 6 9 -8 -6 -38 -16 -32 -5 3 -9 -2 -9 -11 0 -20 -22 -15
-28 6 -3 11 -1 11 8 -1 9 -12 10 -8 6 20 -3 19 -3 28 2 20 4 -8 13 -16 20 -17z
m5399 -5 c-3 -8 -6 -5 -6 6 -1 11 2 17 5 13 3 -3 4 -12 1 -19z m-43 -4 c8 -21
8 -24 -3 -24 -5 0 -11 9 -14 20 -6 24 8 27 17 4z m1873 -56 c-2 -13 -4 -3 -4
22 0 25 2 35 4 23 2 -13 2 -33 0 -45z m-1850 30 c-3 -8 -6 -5 -6 6 -1 11 2 17
5 13 3 -3 4 -12 1 -19z m-1311 -98 c-2 -8 -5 -4 -6 10 l-2 25 -7 -25 c-5 -17
-7 -6 -7 34 l0 60 13 -45 c8 -24 12 -51 9 -59z m3114 0 l-11 -25 6 25 c2 14 6
41 7 60 l1 35 4 -35 c2 -20 -1 -47 -7 -60z m27 68 c-3 -8 -6 -5 -6 6 -1 11 2
17 5 13 3 -3 4 -12 1 -19z m-1822 -7 c-3 -6 -11 -11 -16 -11 -5 0 -4 6 3 14
14 16 24 13 13 -3z m8 -32 c-8 -8 -13 -7 -18 2 -5 8 -4 10 3 5 7 -4 12 -2 12
5 0 7 3 9 7 6 4 -4 2 -12 -4 -18z m1811 -59 c-10 -22 -21 -40 -25 -40 -9 0
-21 31 -14 38 3 3 5 0 5 -6 0 -27 18 -9 30 31 7 23 15 36 17 30 3 -7 -3 -31
-13 -53z m-1507 34 c-3 -3 -12 -4 -19 -1 -8 3 -5 6 6 6 11 1 17 -2 13 -5z
m-151 -19 c-11 -8 -24 -15 -30 -15 -5 0 -1 7 10 15 10 8 24 14 29 14 6 0 1 -6
-9 -14z m101 9 c-3 -3 -12 -4 -19 -1 -8 3 -5 6 6 6 11 1 17 -2 13 -5z m93 -8
c0 -3 -4 -8 -10 -11 -5 -3 -10 -1 -10 4 0 6 5 11 10 11 6 0 10 -2 10 -4z m30
-16 c-24 -15 -36 -11 -14 4 10 8 21 12 24 10 2 -3 -2 -9 -10 -14z m-76 -2 c-7
-10 -85 -10 -101 0 -6 4 15 7 47 7 32 0 56 -3 54 -7z m-2504 -2 c0 -3 -4 -8
-10 -11 -5 -3 -10 -1 -10 4 0 6 5 11 10 11 6 0 10 -2 10 -4z m47 -18 c-3 -8
-6 -5 -6 6 -1 11 2 17 5 13 3 -3 4 -12 1 -19z m-88 -25 c9 -18 8 -21 -7 -19
-9 2 -17 8 -16 14 3 40 4 41 23 5z m56 17 c3 -5 1 -10 -4 -10 -6 0 -11 5 -11
10 0 6 2 10 4 10 3 0 8 -4 11 -10z m-3145 -55 c0 -5 -5 -3 -10 5 -5 8 -10 20
-10 25 0 6 5 3 10 -5 5 -8 10 -19 10 -25z m3094 -7 c-3 -4 -9 -8 -15 -8 -5 0
-9 4 -9 8 0 5 7 9 15 9 8 0 12 -4 9 -9z m-47 -29 c-11 -29 -12 -29 -15 -9 -3
18 10 38 25 40 1 0 -4 -14 -10 -31z m-2959 -34 c4 -6 -1 -2 -10 8 -10 11 -18
27 -17 36 0 10 4 7 10 -8 5 -14 13 -30 17 -36z m3008 10 c0 -25 -3 -31 -9 -20
-7 13 -2 55 7 55 1 0 2 -16 2 -35z m-36 -15 c-6 -11 -8 -26 -4 -33 5 -9 4 -9
-5 -1 -8 8 -8 19 1 44 6 19 13 29 15 23 3 -7 -1 -21 -7 -33z m-51 -16 c4 3 8
-9 8 -27 l0 -32 -12 29 c-8 18 -15 25 -19 17 -4 -7 -2 -18 4 -26 7 -8 9 -15 5
-15 -4 0 -13 8 -20 17 -10 14 -10 21 4 39 12 16 17 18 19 8 2 -8 7 -12 11 -10z
m75 -10 c3 -8 2 -12 -4 -9 -6 3 -10 10 -10 16 0 14 7 11 14 -7z m1006 -42 c-6
-2 -10 -11 -11 -20 0 -14 -2 -13 -9 3 -5 11 -9 27 -9 35 0 9 4 8 9 -5 7 -17 9
-14 10 15 l2 35 9 -30 c5 -19 5 -31 -1 -33z m-3964 36 c3 -4 -1 -5 -10 -4 -8
1 -18 5 -22 8 -3 4 1 5 10 4 8 -1 18 -5 22 -8z m4029 -57 c-6 -5 -44 41 -44
54 0 6 11 -3 24 -20 13 -16 22 -31 20 -34z m-1173 -5 c-3 -5 1 -7 10 -4 9 4
15 0 15 -8 0 -17 -3 -17 -28 -3 -11 5 -17 14 -14 18 3 5 -6 8 -20 7 -14 0 -25
-4 -25 -8 0 -5 -5 -8 -11 -8 -8 0 -8 4 1 14 6 8 18 12 26 9 8 -3 14 1 14 11 0
14 2 14 18 -1 11 -10 17 -22 14 -27z m-2778 16 c3 -5 -1 -9 -9 -9 -8 0 -15 4
-15 9 0 4 4 8 9 8 6 0 12 -4 15 -8z m6826 -12 c0 -5 -5 -12 -10 -15 -6 -3 -8
-22 -6 -41 3 -21 1 -32 -5 -28 -6 3 -16 0 -24 -6 -12 -10 -15 -10 -15 0 0 7
-6 10 -14 7 -24 -10 -27 6 -5 29 l22 23 18 -22 c10 -12 18 -17 19 -10 0 6 -5
15 -11 18 -7 5 -5 13 5 24 9 10 13 21 10 24 -4 4 -13 -1 -21 -11 -13 -15 -13
-15 -3 5 10 21 40 23 40 3z m47 -2 c-3 -8 -6 -5 -6 6 -1 11 2 17 5 13 3 -3 4
-12 1 -19z m-2947 0 c0 -6 -3 -8 -7 -5 -3 4 -12 2 -20 -5 -11 -8 -12 -7 -7 6
7 18 34 22 34 4z m-3916 -17 c-8 -8 -34 -10 -38 -2 -3 4 6 7 19 7 14 0 22 -2
19 -5z m3931 -1 c-3 -5 -12 -10 -18 -10 -7 0 -6 4 3 10 19 12 23 12 15 0z
m2930 -8 c-3 -3 -11 0 -18 7 -9 10 -8 11 6 5 10 -3 15 -9 12 -12z m-4165 -7
c-7 -8 -20 -15 -29 -15 -13 1 -13 3 3 15 26 19 42 19 26 0z m27 -7 c-3 -8 -6
-5 -6 6 -1 11 2 17 5 13 3 -3 4 -12 1 -19z m1263 -12 c0 -4 -7 -2 -17 5 -13
11 -17 11 -20 2 -3 -7 -9 -13 -14 -13 -5 0 -4 9 3 19 9 15 15 17 30 8 10 -7
18 -16 18 -21z m-3942 -4 c13 11 14 11 8 0 -5 -9 -3 -12 5 -10 18 3 69 -31 69
-46 0 -6 -4 -4 -10 4 -5 8 -12 11 -16 7 -4 -3 -1 -14 7 -23 12 -15 12 -17 -1
-12 -8 3 -15 13 -15 24 -1 31 -13 42 -40 36 -20 -3 -23 -7 -14 -18 16 -19 4
-18 -15 1 -8 9 -12 23 -9 32 5 11 8 13 11 5 3 -10 7 -10 20 0z m2605 -7 c9
-21 -9 -27 -24 -8 -10 12 -10 14 -1 9 6 -4 12 -2 12 3 0 16 7 13 13 -4z m1377
-33 c-5 -2 -10 -8 -10 -14 0 -6 7 -7 16 -4 8 3 12 2 9 -4 -3 -6 2 -10 11 -10
14 0 15 -3 6 -12 -10 -10 -15 -10 -22 2 -9 13 -11 13 -21 0 -9 -13 -10 -13 -6
2 7 20 -17 43 -34 33 -6 -4 -4 4 6 18 16 24 17 25 36 9 11 -9 15 -18 9 -20z
m-1422 4 c-7 -8 -15 -12 -17 -11 -5 6 10 25 20 25 5 0 4 -6 -3 -14z m1337 4
c3 -5 1 -10 -4 -10 -6 0 -11 5 -11 10 0 6 2 10 4 10 3 0 8 -4 11 -10z m2761
-27 c-10 -10 -19 5 -10 18 6 11 8 11 12 0 2 -7 1 -15 -2 -18z m-6527 -39 c12
-14 19 -29 15 -32 -4 -4 -9 -1 -12 7 -4 11 -6 11 -13 0 -6 -10 -9 -11 -9 -1 0
6 -7 12 -15 12 -8 0 -15 -5 -15 -10 0 -6 -8 -5 -20 2 -11 7 -20 16 -20 21 0 4
6 5 13 0 12 -8 67 -11 67 -4 0 2 -8 10 -17 17 -10 7 -13 14 -7 14 6 0 21 -12
33 -26z m6511 16 c0 -5 6 -10 14 -10 8 0 17 -4 20 -8 6 -11 -86 -14 -102 -3
-11 7 -10 9 3 14 9 4 13 3 10 -3 -4 -6 7 -10 26 -10 31 0 32 1 13 15 -17 13
-17 14 -1 15 9 0 17 -4 17 -10z m-2580 -6 c0 -8 -19 -13 -24 -6 -3 5 1 9 9 9
8 0 15 -2 15 -3z m-1607 -30 c-4 -11 -8 -12 -20 -3 -11 10 -11 14 -1 20 17 10
28 2 21 -17z m-2275 -9 c-3 -3 -9 2 -12 12 -6 14 -5 15 5 6 7 -7 10 -15 7 -18z
m3918 12 c5 -4 0 -5 -10 -1 -11 4 -17 3 -14 -2 4 -5 -5 -9 -18 -9 -13 0 -24 3
-24 6 0 3 -13 6 -30 6 -16 0 -30 -5 -30 -10 0 -6 -3 -8 -6 -4 -3 3 -4 10 -1
14 7 11 122 11 133 0z m2424 -27 c0 -5 -5 -10 -11 -10 -5 0 -7 5 -4 10 3 6 8
10 11 10 2 0 4 -4 4 -10z m-6287 -15 c0 -6 -8 -11 -19 -12 -10 -2 -13 0 -6 3
6 3 9 10 6 16 -4 6 -1 9 5 7 7 -3 13 -9 14 -14z m2164 -1 c-3 -3 -12 -4 -19
-1 -8 3 -5 6 6 6 11 1 17 -2 13 -5z m1753 -4 c-8 -5 -19 -10 -25 -10 -5 0 -3
5 5 10 8 5 20 10 25 10 6 0 3 -5 -5 -10z m-3854 -14 c15 -8 31 -13 36 -10 4 3
8 0 8 -6 0 -7 -8 -9 -21 -5 -14 5 -25 2 -30 -6 -6 -10 -9 -11 -9 -1 0 7 -13
12 -31 12 -17 0 -28 -4 -24 -10 3 -5 2 -10 -4 -10 -5 0 -12 4 -15 9 -7 11 17
21 52 21 21 0 24 2 12 10 -23 15 -6 12 26 -4z m2056 7 c-6 -3 -10 -9 -7 -13 3
-5 -5 -14 -17 -21 -21 -11 -22 -11 -9 5 8 9 11 20 7 23 -4 4 -11 2 -15 -5 -4
-7 -12 -12 -17 -11 -5 1 -16 1 -24 -1 -11 -1 -9 -4 5 -11 18 -8 18 -8 -5 -6
-14 1 -24 7 -22 12 3 13 59 32 92 32 14 0 19 -2 12 -4z m88 -3 c0 -5 -4 -10
-9 -10 -6 0 -13 5 -16 10 -3 6 1 10 9 10 9 0 16 -4 16 -10z m1743 -7 c-7 -2
-19 -2 -25 0 -7 3 -2 5 12 5 14 0 19 -2 13 -5z m2257 -3 c-8 -5 -22 -9 -30 -9
-10 0 -8 3 5 9 27 12 43 12 25 0z m-2291 -9 c7 -5 9 -11 5 -14 -5 -3 -15 1
-22 9 -14 16 -5 18 17 5z m101 -5 c0 -11 -19 -15 -25 -6 -3 5 1 10 9 10 9 0
16 -2 16 -4z m2160 -17 c0 -14 -17 -10 -23 5 -4 10 -1 13 9 9 7 -3 14 -9 14
-14z m38 7 c-7 -8 -15 -12 -17 -11 -5 6 10 25 20 25 5 0 4 -6 -3 -14z m-4015
-3 c-7 -2 -19 -2 -25 0 -7 3 -2 5 12 5 14 0 19 -2 13 -5z m3928 -16 c-10 -9
-11 -8 -5 6 3 10 9 15 12 12 3 -3 0 -11 -7 -18z m-5887 -16 c6 -10 -24 -25
-32 -16 -3 3 0 5 7 5 7 0 9 5 6 10 -3 6 -2 10 4 10 5 0 12 -4 15 -9z m1649
-11 c-12 -11 -93 -41 -93 -34 0 3 13 10 30 15 16 6 27 15 24 21 -4 6 2 8 16 3
17 -5 21 -4 15 5 -6 9 -4 11 4 5 7 -4 9 -11 4 -15z m74 4 c-3 -3 -12 -4 -19
-1 -8 3 -5 6 6 6 11 1 17 -2 13 -5z m4088 -16 c-1 -13 -7 -23 -13 -22 -45 4
-47 5 -24 14 12 5 22 14 22 20 0 5 4 10 8 10 5 0 8 -10 7 -22z m-5768 6 c-3
-3 -12 -4 -19 -1 -8 3 -5 6 6 6 11 1 17 -2 13 -5z m40 0 c-3 -3 -12 -4 -19 -1
-8 3 -5 6 6 6 11 1 17 -2 13 -5z m5659 -9 c-11 -8 -31 -15 -45 -14 -23 1 -22
2 7 9 18 4 36 10 39 14 4 3 9 6 12 6 3 0 -3 -7 -13 -15z m-5612 -1 c9 -3 13
-11 10 -16 -4 -7 -9 -7 -13 0 -4 6 -22 7 -46 3 -22 -3 -51 -4 -65 -2 -16 4 -4
8 35 12 33 3 61 6 62 7 1 1 8 -1 17 -4z m-1844 -14 c0 -5 -2 -10 -4 -10 -3 0
-8 5 -11 10 -3 6 -1 10 4 10 6 0 11 -4 11 -10z m3240 3 c-8 -3 -21 -12 -27
-21 -7 -9 -16 -12 -20 -8 -10 10 26 36 46 35 14 0 14 -1 1 -6z m-1530 -13 c8
-5 11 -12 8 -16 -4 -3 -14 1 -23 10 -18 17 -9 21 15 6z m1467 4 c-3 -3 -12 -4
-19 -1 -8 3 -5 6 6 6 11 1 17 -2 13 -5z m2467 -9 c-7 -17 -20 -20 -28 -6 -7
10 3 21 20 21 8 0 11 -6 8 -15z m1726 5 c-8 -5 -31 -9 -50 -8 l-35 1 40 7 c59
11 61 11 45 0z m-7393 -22 c-3 -8 -6 -5 -6 6 -1 11 2 17 5 13 3 -3 4 -12 1
-19z m3283 12 c0 -5 -4 -10 -10 -10 -5 0 -10 5 -10 10 0 6 5 10 10 10 6 0 10
-4 10 -10z m-5686 -24 c-3 -9 -10 -16 -15 -16 -5 0 -4 9 3 20 14 22 21 20 12
-4z m9616 14 c8 -5 11 -10 5 -10 -5 0 -17 5 -25 10 -8 5 -10 10 -5 10 6 0 17
-5 25 -10z m-5095 -18 c-3 -3 -11 0 -18 7 -9 10 -8 11 6 5 10 -3 15 -9 12 -12z
m875 8 c8 -5 11 -10 5 -10 -5 0 -17 5 -25 10 -8 5 -10 10 -5 10 6 0 17 -5 25
-10z m3098 -17 c2 -8 -5 -13 -20 -12 -20 1 -21 2 -3 7 l20 5 -20 8 c-19 8 -19
9 -1 6 11 -1 21 -8 24 -14z m252 6 c0 -7 76 -9 245 -7 163 2 241 0 234 -7 -6
-6 -102 -11 -241 -11 -186 -1 -234 1 -246 12 -7 8 -18 11 -24 8 -7 -4 -8 -2
-4 4 9 15 36 16 36 1z m1055 1 c3 -5 1 -10 -4 -10 -6 0 -11 5 -11 10 0 6 2 10
4 10 3 0 8 -4 11 -10z m-7438 -32 c-3 -7 -5 -2 -5 12 0 14 2 19 5 13 2 -7 2
-19 0 -25z m33 0 c0 -5 -4 -8 -10 -8 -5 0 -10 10 -10 23 0 18 2 19 10 7 5 -8
10 -18 10 -22z m1857 26 c-3 -3 -12 -4 -19 -1 -8 3 -5 6 6 6 11 1 17 -2 13 -5z
m240 0 c-3 -3 -12 -4 -19 -1 -8 3 -5 6 6 6 11 1 17 -2 13 -5z m373 -10 c0 -2
-9 -4 -20 -4 -11 0 -20 4 -20 9 0 5 9 7 20 4 11 -3 20 -7 20 -9z m120 6 c0 -5
-18 -10 -40 -10 -22 0 -40 5 -40 10 0 6 18 10 40 10 22 0 40 -4 40 -10z m85 0
c-3 -5 -16 -10 -28 -9 -20 1 -20 2 3 9 14 4 26 8 28 9 2 1 0 -3 -3 -9z m3015
6 c0 -2 -7 -7 -16 -10 -8 -3 -12 -2 -9 4 6 10 25 14 25 6z m305 -6 c-11 -5
-27 -9 -35 -9 -9 0 -8 4 5 9 11 5 27 9 35 9 9 0 8 -4 -5 -9z m200 0 c-3 -5 -1
-10 6 -10 7 0 10 -2 8 -5 -3 -2 -16 -1 -29 2 -22 6 -23 7 -4 14 26 10 26 10
19 -1z m1041 -2 c-8 -4 -25 -4 -38 1 -20 8 -18 9 15 8 24 -1 32 -4 23 -9z
m-7219 -20 c-3 -8 -6 -5 -6 6 -1 11 2 17 5 13 3 -3 4 -12 1 -19z m2326 15 c-7
-2 -21 -2 -30 0 -10 3 -4 5 12 5 17 0 24 -2 18 -5z m417 -3 c-8 -5 -22 -9 -30
-9 -10 0 -8 3 5 9 27 12 43 12 25 0z m80 0 c-8 -5 -19 -10 -25 -10 -5 0 -3 5
5 10 8 5 20 10 25 10 6 0 3 -5 -5 -10z m3434 4 c16 -6 12 -24 -5 -24 -6 0 -8
4 -5 9 4 5 0 12 -6 14 -7 3 -10 6 -6 6 3 1 13 -2 22 -5z m654 -1 c-10 -2 -18
-9 -18 -14 0 -6 -5 -7 -11 -3 -14 8 8 24 31 23 11 -1 10 -3 -2 -6z m101 3 c-2
-2 -17 -6 -34 -10 -22 -5 -26 -4 -15 4 14 9 59 15 49 6z m98 -2 c-3 -3 -12 -4
-19 -1 -8 3 -5 6 6 6 11 1 17 -2 13 -5z m353 -4 c0 -5 -7 -7 -15 -4 -8 4 -15
8 -15 10 0 2 7 4 15 4 8 0 15 -4 15 -10z m-1457 -7 c-7 -2 -19 -2 -25 0 -7 3
-2 5 12 5 14 0 19 -2 13 -5z m217 -3 c0 -5 -2 -10 -4 -10 -3 0 -8 5 -11 10 -3
6 -1 10 4 10 6 0 11 -4 11 -10z m-3667 -7 c-13 -2 -33 -2 -45 0 -13 2 -3 4 22
4 25 0 35 -2 23 -4z m3400 0 c-7 -2 -19 -2 -25 0 -7 3 -2 5 12 5 14 0 19 -2
13 -5z m-3510 -10 c-7 -2 -19 -2 -25 0 -7 3 -2 5 12 5 14 0 19 -2 13 -5z"/>
<path d="M6500 9610 c12 -8 12 -10 1 -10 -8 0 -12 -2 -9 -5 3 -3 13 -2 22 1
14 5 15 9 4 15 -7 5 -17 9 -23 9 -5 0 -3 -5 5 -10z"/>
<path d="M6555 9610 c-3 -5 -1 -10 4 -10 6 0 11 5 11 10 0 6 -2 10 -4 10 -3 0
-8 -4 -11 -10z"/>
<path d="M9311 9053 c0 -4 4 -17 9 -28 8 -19 9 -19 9 2 1 12 -3 25 -9 28 -5 3
-10 3 -9 -2z"/>
<path d="M7615 9025 c-5 -2 -35 -6 -67 -10 -49 -5 -57 -9 -62 -31 -4 -13 -11
-24 -16 -24 -5 0 -7 -8 -5 -17 2 -14 -4 -18 -25 -18 -15 0 -26 3 -23 8 2 4 12
7 21 7 13 0 14 2 4 8 -9 6 -6 12 13 20 14 6 25 16 25 21 0 19 -145 -50 -179
-85 -37 -38 -35 -55 3 -34 16 8 22 18 19 29 -4 12 0 10 17 -5 27 -27 18 -46
-18 -39 -15 3 -21 2 -14 -1 6 -3 12 -10 12 -15 0 -5 -9 -4 -20 3 -17 11 -22
10 -31 -2 -9 -13 -10 -12 -5 2 3 10 1 20 -4 23 -6 4 -10 1 -10 -4 0 -6 0 -13
0 -16 0 -2 -12 -17 -25 -31 -26 -28 -34 -51 -14 -38 7 4 10 2 8 -5 -3 -7 -8
-11 -13 -9 -19 7 -40 -98 -36 -182 3 -81 6 -96 18 -108 6 -7 12 -19 12 -25 0
-7 -4 -6 -10 3 -5 8 -10 11 -10 5 0 -22 19 -38 36 -31 18 6 18 5 2 -8 -22 -17
-24 -40 -2 -32 9 3 18 6 20 6 3 0 3 4 0 8 -3 5 2 9 10 9 10 0 11 -4 4 -11 -16
-16 -12 -25 10 -21 24 5 24 -1 5 -35 l-15 -25 7 30 c6 28 5 29 -12 15 -10 -8
-16 -10 -12 -3 4 6 3 14 -3 18 -5 3 -10 0 -10 -7 1 -18 53 -93 62 -87 3 2 16
-8 28 -23 21 -27 49 -40 34 -16 -4 7 -3 8 4 4 6 -4 8 -14 5 -23 -4 -11 -3 -14
5 -9 7 4 12 3 12 -2 0 -5 28 -20 63 -32 34 -13 67 -27 72 -31 32 -24 260 -36
375 -19 74 10 236 73 233 89 -2 6 5 8 15 4 13 -5 15 -3 5 7 -13 14 -48 6 -38
-10 3 -6 -4 -10 -16 -10 -21 0 -21 1 5 21 17 13 33 18 47 14 24 -8 64 25 110
93 23 33 28 46 20 60 -8 12 -10 13 -11 3 0 -8 -3 -12 -6 -8 -4 3 4 18 16 34
l22 28 -6 -30 c-6 -27 -5 -28 4 -7 7 16 7 30 -1 44 -6 11 -8 22 -5 26 3 3 6 0
6 -6 0 -7 5 -12 11 -12 7 0 9 12 4 36 -4 22 -3 34 3 30 6 -4 8 20 6 62 -7 102
-8 111 -18 105 -4 -3 -5 4 -1 16 4 13 2 21 -5 21 -6 0 -8 5 -4 12 5 8 0 9 -17
5 -22 -6 -23 -5 -5 8 10 8 15 19 11 25 -6 9 -10 9 -17 -1 -6 -10 -7 -6 -3 10
11 37 -103 141 -187 171 -35 12 -67 26 -73 30 -25 20 -326 40 -370 25z m-50
-40 c-47 -29 -55 -30 -55 -9 0 8 3 13 8 11 4 -3 21 1 37 8 48 21 53 17 10 -10z
m415 -5 c0 -5 -4 -10 -10 -10 -5 0 -10 5 -10 10 0 6 5 10 10 10 6 0 10 -4 10
-10z m30 -9 c0 -29 -70 -56 -84 -33 -3 5 9 7 27 5 28 -3 29 -2 10 7 -30 13
-29 22 1 14 13 -3 27 -1 30 5 9 13 16 14 16 2z m-602 -22 c-10 -5 -15 -17 -12
-27 5 -14 3 -14 -6 2 -10 15 -9 20 1 27 8 5 19 9 24 9 6 -1 2 -5 -7 -11z m157
-9 c-3 -5 -10 -10 -16 -10 -5 0 -9 5 -9 10 0 6 7 10 16 10 8 0 12 -4 9 -10z
m562 -29 c23 -28 22 -41 -2 -21 -8 7 -15 19 -15 28 0 11 -8 13 -34 9 -27 -4
-34 -3 -29 9 8 21 54 7 80 -25z m-762 -1 c-5 -8 -11 -8 -17 -2 -6 6 -7 16 -3
22 5 8 11 8 17 2 6 -6 7 -16 3 -22z m152 24 c-3 -3 -12 -4 -19 -1 -8 3 -5 6 6
6 11 1 17 -2 13 -5z m460 -20 c-3 -3 -12 -4 -19 -1 -8 3 -5 6 6 6 11 1 17 -2
13 -5z m233 -79 c0 -3 -11 7 -25 23 -14 17 -25 33 -25 37 0 3 11 -7 25 -23 14
-17 25 -33 25 -37z m-94 36 c5 -5 20 -11 33 -13 14 -1 26 -9 27 -16 1 -7 0 -8
-3 -2 -2 5 -15 10 -27 10 -22 0 -71 29 -50 30 5 0 14 -4 20 -9z m-16 -25 c0
-3 -4 -8 -10 -11 -5 -3 -10 -1 -10 4 0 6 5 11 10 11 6 0 10 -2 10 -4z m-820
-70 c0 -3 -7 -3 -15 0 -8 4 -15 1 -15 -5 0 -6 5 -11 12 -11 6 0 9 -2 6 -5 -3
-3 -13 -3 -22 1 -13 5 -14 9 -5 20 6 8 8 22 5 31 -6 14 -2 13 13 -4 12 -12 21
-24 21 -27z m-89 -83 c-12 -20 -14 -14 -5 12 4 9 9 14 11 11 3 -2 0 -13 -6
-23z m1089 -50 c-10 -16 -10 -15 -5 4 3 12 1 24 -5 28 -5 3 -10 11 -10 18 0 6
7 1 16 -11 11 -17 12 -26 4 -39z m-1086 -9 c3 -8 2 -12 -4 -9 -6 3 -10 10 -10
16 0 14 7 11 14 -7z m1068 -24 c3 -16 1 -35 -4 -42 -4 -8 -8 4 -8 30 0 49 6
55 12 12z m-1075 -72 c-3 -8 -6 -5 -6 6 -1 11 2 17 5 13 3 -3 4 -12 1 -19z
m1090 -30 c-3 -7 -5 -2 -5 12 0 14 2 19 5 13 2 -7 2 -19 0 -25z m-21 -54 c-4
-9 -9 -15 -11 -12 -3 3 -3 13 1 22 4 9 9 15 11 12 3 -3 3 -13 -1 -22z m-75
-37 c-6 -8 -9 -17 -6 -21 3 -3 0 -2 -6 3 -12 10 -4 31 13 31 7 0 7 -4 -1 -13z
m43 -17 c-6 -6 -10 -2 -11 12 -2 16 1 18 10 9 7 -7 8 -14 1 -21z m-49 -50
c-24 -38 -22 -53 3 -28 9 9 12 9 12 -2 1 -11 5 -10 15 4 19 26 19 42 0 26 -8
-7 -15 -8 -15 -2 0 5 6 15 14 21 11 10 16 8 21 -9 7 -22 -3 -39 -52 -88 -22
-22 -24 -22 -50 -5 -19 13 -28 14 -31 5 -2 -6 -8 -12 -14 -12 -6 0 -5 6 2 15
7 9 21 13 30 10 9 -3 23 1 29 9 10 12 7 14 -21 12 -28 -2 -34 1 -35 17 -2 19
2 20 52 2 20 -7 20 -6 1 9 -11 9 -15 16 -9 16 7 0 15 -5 19 -11 5 -8 10 -6 16
5 5 9 6 21 2 28 -4 6 -3 8 4 4 6 -3 13 -2 17 4 3 5 8 10 11 10 2 0 -7 -18 -21
-40z m-860 -10 c3 -5 11 -10 16 -10 6 0 8 4 4 9 -6 11 33 6 44 -5 3 -3 -3 -4
-13 -2 -10 1 -21 -2 -23 -7 -2 -6 15 -11 39 -12 32 -1 38 1 23 7 -23 10 -5 13
20 4 14 -6 13 -8 -4 -21 -15 -10 -26 -11 -38 -4 -11 6 -24 6 -35 0 -13 -7 -18
-6 -16 3 2 7 -4 12 -12 10 -8 -2 -12 0 -8 4 4 4 0 13 -10 20 -9 8 -12 14 -5
14 6 0 15 -4 18 -10z m-8 -40 c13 -17 30 -27 35 -23 7 4 8 1 3 -6 -5 -9 -13
-7 -30 9 -13 12 -25 18 -27 13 -3 -4 -3 -2 -1 6 2 8 -2 11 -11 8 -10 -4 -13
-1 -9 9 7 20 11 18 40 -16z m133 -10 c0 -5 -5 -10 -11 -10 -5 0 -7 5 -4 10 3
6 8 10 11 10 2 0 4 -4 4 -10z m-25 -21 c3 -4 -7 -7 -21 -6 -15 1 -29 7 -31 13
-4 13 44 7 52 -7z m-20 -29 c3 -5 -1 -10 -9 -10 -9 0 -16 5 -16 10 0 6 4 10 9
10 6 0 13 -4 16 -10z m660 0 c-3 -5 -11 -10 -16 -10 -6 0 -7 5 -4 10 3 6 11
10 16 10 6 0 7 -4 4 -10z m-422 -7 c-7 -2 -19 -2 -25 0 -7 3 -2 5 12 5 14 0
19 -2 13 -5z m102 -33 c4 -6 -5 -10 -20 -10 -15 0 -24 4 -20 10 3 6 12 10 20
10 8 0 17 -4 20 -10z m-55 -12 c0 -3 -25 -6 -56 -5 -31 1 -48 4 -37 8 23 8 93
6 93 -3z m169 3 c8 -5 -5 -7 -35 -4 -27 3 -51 7 -53 9 -9 8 75 3 88 -5z m91 5
c0 -2 -7 -7 -16 -10 -8 -3 -12 -2 -9 4 6 10 25 14 25 6z m100 -6 c-8 -5 -19
-10 -25 -10 -5 0 -3 5 5 10 8 5 20 10 25 10 6 0 3 -5 -5 -10z m-527 -12 c-2
-5 -10 -8 -18 -8 -8 0 -16 3 -18 8 -3 4 5 7 18 7 13 0 21 -3 18 -7z m369 -21
c-15 -7 -29 -6 -44 1 -20 10 -19 10 10 5 21 -4 32 -2 32 6 0 7 5 9 12 5 8 -5
5 -11 -10 -17z m-325 7 c-3 -3 -12 -4 -19 -1 -8 3 -5 6 6 6 11 1 17 -2 13 -5z
m58 -4 c-11 -5 -27 -9 -35 -9 -9 0 -8 4 5 9 11 5 27 9 35 9 9 0 8 -4 -5 -9z
m65 -4 c0 -2 -11 -6 -25 -8 -13 -3 -22 -1 -19 3 5 9 44 13 44 5z m63 -13 c-7
-2 -21 -2 -30 0 -10 3 -4 5 12 5 17 0 24 -2 18 -5z m44 1 c-3 -3 -12 -4 -19
-1 -8 3 -5 6 6 6 11 1 17 -2 13 -5z"/>
<path d="M8100 8320 c8 -5 20 -10 25 -10 6 0 3 5 -5 10 -8 5 -19 10 -25 10 -5
0 -3 -5 5 -10z"/>
<path d="M8153 8291 c-12 -10 -20 -21 -16 -24 7 -7 53 22 53 34 0 14 -13 10
-37 -10z"/>
<path d="M7330 8870 c0 -5 5 -10 10 -10 6 0 10 5 10 10 0 6 -4 10 -10 10 -5 0
-10 -4 -10 -10z"/>
<path d="M6179 8058 c-6 -13 -4 -86 3 -82 4 3 8 12 8 20 0 8 4 12 10 9 6 -3 7
1 4 9 -3 9 -11 16 -16 16 -6 0 -8 7 -4 15 4 12 0 23 -5 13z"/>
<path d="M8925 7580 c3 -5 11 -10 16 -10 6 0 7 5 4 10 -3 6 -11 10 -16 10 -6
0 -7 -4 -4 -10z"/>
<path d="M13172 9340 c-8 -13 -8 -20 -1 -20 5 0 7 -6 3 -12 -4 -7 -3 -10 1 -6
7 7 17 58 12 58 -1 0 -8 -9 -15 -20z"/>
<path d="M8810 9654 c0 -1 14 -9 31 -18 24 -12 28 -12 20 -2 -9 11 -9 15 1 18
7 3 -2 5 -19 5 -18 0 -33 -2 -33 -3z"/>
<path d="M10500 9640 c-8 -5 -11 -12 -8 -15 4 -4 17 0 30 9 24 17 5 23 -22 6z"/>
<path d="M11898 9153 c7 -3 16 -2 19 1 4 3 -2 6 -13 5 -11 0 -14 -3 -6 -6z"/>
<path d="M10426 8504 c-8 -21 -8 -24 3 -24 5 0 11 9 14 20 6 24 -8 27 -17 4z"/>
<path d="M13142 7678 c2 -6 10 -14 16 -16 7 -2 10 2 6 12 -7 18 -28 22 -22 4z"/>
<path d="M10390 7650 c0 -5 5 -10 11 -10 5 0 7 5 4 10 -3 6 -8 10 -11 10 -2 0
-4 -4 -4 -10z"/>
</g>
</svg>
